<mxfile host="app.diagrams.net" modified="2021-08-14T07:00:48.056Z" agent="5.0 (Windows NT 10.0; Win64; x64) AppleWebKit/537.36 (KHTML, like Gecko) Chrome/92.0.4515.131 Safari/537.36" etag="z2HNTgRitssYfv3BjcY1" version="14.8.4" type="github">
  <diagram id="8O7noDCw7eFGGS8ApLBq" name="Page-1">
    <mxGraphModel dx="2249" dy="762" grid="1" gridSize="10" guides="1" tooltips="1" connect="1" arrows="1" fold="1" page="1" pageScale="1" pageWidth="827" pageHeight="1169" math="0" shadow="0">
      <root>
        <mxCell id="0" />
        <mxCell id="1" parent="0" />
        <mxCell id="72Am2vbFL40teB_BgCZg-1" value="" style="shape=image;verticalLabelPosition=bottom;labelBackgroundColor=#ffffff;verticalAlign=top;aspect=fixed;imageAspect=0;image=data:image/png,iVBORw0KGgoAAAANSUhEUgAAAz8AAAGyCAYAAADK5HpsAAAAAXNSR0IArs4c6QAAIABJREFUeF7t3WGobtlZGOB15qSttY1BxQQsRDAtlCn9lRuHTP8UGhqEgJR6JNJBTNCIhCBIKkEsXksIoiQ0rbTkiq00o8a51v5ICERC/0QUk0ws+WHAzlxpkLSZcHPapqZWO56y78y5986de85+97fXfs+7934uDDOZs/Za737e9/v292adb81Ra+2s+UOAAAECBAgQIECAAIERgaee+nA7OXminZ7eHrX6ypefa6enX23Hx8ft+JHjO39/ZPjn+/568H8P44ZrHnvj4+3WrWdG14gOOI/lSPMTJTOOAAECBAgQIECAwL4Fos3Pd37n32y/97u/c3Dz822veXVX6M03P2dnZ+3oaOjt/FlagPXSwvfmZ806TyBvJXXNOk8gbyV1zTpPIG+loa5v3nzSzk8euZUIECBAgAABAgQIELgqATs/VyVvXQIECBAgQIAAAQIEUgWizc8QlO/8pKbGYgQIECBAgAABAgQI9BSINj++89NT3VwECBAgQIAAAQIECKQLRJsfOz/pqbEgAQIECBAgQIAAAQI9BaLNj52fnuqBuZyyEkDqNIR1J8jANKwDSJ2GsO4EGZiGdQCp0xDWnSAD07AOIHUawroTZGAap70FkAwhQIAAAQIECBAgQGAbAnZ+tpFHd0GAAAECBAgQIECAwIhAtPkZpnHam3IiQIAAAQIECBAgQGC1AtHmx3d+VptigRMgQIAAAQIECBAgMAhEmx87P+qFAAECBAgQIECAAIFVC0SbHzs/yWl28kceOGvWeQJ5K6lr1nkCeSupa9Z5Ankrqetc65s3n2wnJ0+009Pbowv7zs8okQEECBAgQIAAAQIECFQVsPNTNTPiIkCAAAECBAgQIECgq0C0+RkWtfPTld5kBAgQIECAAAECBAhkCkSbH9/5ycyKtQgQIECAAAECBAgQ6C4QbX7s/HSnNyEBAgQIECBAgAABApkC0ebHzk9mVlprTv7IA2fNOk8gbyV1zTpPIG8ldc06TyBvJXWda+20tzxvKxEgQIAAAQIECBAgcIUCdn6uEN/SBAgQIECAAAECBAjkCUSbnyEip73l5cVKBAgQIECAAAECBAh0Fog2P77z0xnedAQIECBAgAABAgQI5ApEmx87P7l5sRoBAgQIECBAgAABAp0Fos2PnZ/O8GPTOfljTKjfz1n3sxybifWYUL+fs+5nOTYT6zGhfj9n3c9ybCbWY0L9fs66n+XYTIO1097GlPycAAECBAgQIECAAIFNCNj52UQa3QQBAgQIECBAgAABAmMC0eZnmMdpb2Oafk6AAAECBAgQIECAQFmBaPPjOz9lUygwAgQIECBAgAABAgQiAtHmx85PRNMYAgQIECBAgAABAgTKCkSbHzs/ySl08kceOGvWeQJ5K6lr1nkCeSupa9Z5Ankrqetca6e95XlbiQABAgQIECBAgACBKxSw83OF+JYmQIAAAQIECBAgQCBPINr8DBE57S0vL1YiQIAAAQIECBAgQKCzQLT58Z2fzvCmI0CAAAECBAgQIEAgVyDa/Nj5yc2L1QgQIECAAAECBAgQ6CwQbX7s/HSGH5vOyR9jQv1+zrqf5dhMrMeE+v2cdT/LsZlYjwn1+znrfpZjM7EeE+r3c9b9LMdmGqyd9jam5OcECBAgQIAAAQIECGxCwM7PJtLoJggQIECAAAECBAgQGBOINj/DPE57G9P0cwIECBAgQIAAAQIEygpEmx/f+SmbQoERIECAAAECBAgQIBARiDY/dn4imsYQIJAu8I7Ppi9pQQIECBAgQGClAm+69eF2cvJEOz29fekdlN35OTs7Ozs6Oro0+MgpGnseM+Dt+f6r3bt8nLUpr+mh+blx7eVvAb3yKh/T8nHRm7F81HKUD/mY8j679Ou6Vz1Wm8fzo9br7DwfTntbadcqbAIEWruo8WFDgAABAgQIEHiYQPTX3sru/AybFlJLgMA+BTQ/+8y7uyZAgAABAocKRJufYX6nvR2q7DoCBLoLnH/X52G/8tZ9MRMSIECAAAECmxCINj92fjaRbjdBYDsCdn22k0t3QoAAAQIEsgSizY+dn6yMWIcAgZCA5ifEZBABAgQIECBwn0C0+bHzk1w2kRNLkkPa7HKs81Lb01rzc3neelrnVcg6V2KdlzfWrPME8lZS17nWTnvL87YSAQIdBTQ/HTFNRYAAAQIEdiJg52cniXabBLYmoPnZWkbdDwECBAgQWF4g2vwMkTjtbfl8WIEAgaCA5icIZRgBAgQIECBwVyDa/PjOj6IhQKCUgOanVDoEQ4AAAQIEViEQbX7s/KwinYIksB8Bzc9+cu1OCRAgQIBAL4Fo82Pnp5d4cB4nfwShOgxj3QExOEUva43POHgv6/GVjGCdVwOsWecJ5K2krnOtnfaW520lAgQ6CWh+OkGahgABAgQI7EzAzs/OEu52CWxBQPOzhSy6BwIECBAgkC8QbX6GyJz2lp8fKxIg8BABzY+yIECAAAECBA4RiDY/vvNziK5rCBBYREDzswirSQkQIECAwOYFos2PnZ/Nl4IbJLAeAc3PenIlUgIECBAgUEkg2vzY+UnOmpM/8sBZr89a8zOeM3U9btRrBOtekuPzsB436jWCdS/J8XlYjxv1GjFYO+2tl6Z5CBBIE9D8pFFbiAABAgQIbErAzs+m0ulmCGxfYGh8hj83rm3/Xt0hAQIECBAg0Fcg2vwMqzrtra+92QgQOEDArs8BaC4hQIAAAQIE7ghEmx/f+VEwBAiUEND8lEiDIAgQIECAwCoFos2PnZ9VplfQBLYnoPnZXk7dEQECBAgQyBKINj92frIy8uI6Tv7IA2e9LmvNTyxf6jrm1GMU6x6KsTlYx5x6jGLdQzE2B+uYU49RTnvroWgOAgRSBTQ/qdwWI0CAAAECmxKw87OpdLoZAtsX0PxsP8fukAABAgQILCUQbX6G9Z32tlQWzEuAQFhA8xOmMpAAAQIECBB4QCDa/PjOj9IhQKCEgOanRBoEQYAAAQIEVikQbX7s/KwyvYImsC0Bjc+28uluCBAgQIBAtkC0+bHzk50Z6xEg8DIBzY+iIECAAAECBOYIRJsfOz9zlA+41rGHB6AdeAnrA+EOuGyuteYnjj7XOr6SkazzaoA16zyBvJXUda71zZtPtpOTJ9rp6e1LF7bzk5cXKxEgcIGA5kdpECBAgAABAnME7PzM0XMtAQKpApqfVG6LESBAgACBzQlEmx87P5tLvRsicJjAZz902HWuIkCAAAECBAhctcCtb/5w6Nfehjj9d36uOlvWJ7BzATs/Oy8At0+AAAECBGYKbGbn502vb+37/0Frr/prrT39h639wn9s7Wtff0HnO17T2t/7u6397de29k3f2No/+7f3fjbTz+UECCQKaH4SsS1FgAABAgQ2KBBtfkrv/Dz+d1r7wDtbe/9TrT37pdbe9Y9a+/r/be2d/+KFjL39u1t77NHWbv/P1v7hG1p78z9t7fb/qp1NJ3/k5Yf1eqw1P/Fcqeu41dyRrOcKxq9nHbeaO5L1XMH49azjVnNHDtabOO3txrtb++KXW3vvh18gee1rWvvNf97aD7yvtT/4r/eYHv2O1v79T66j+ZmbXNcT2JrA0PgMf25c29qduR8CBAgQIEAgS2D1Oz/Hj7Sz3/5Xrf30v2vtt178cDTgffR9rf3af2rtVz+p+ckqJusQWFLArs+SuuYmQIAAAQL7EIg2P2VPe/vWb2pnn/j51t7x/tY+94f3kvbL72nt9/9Lax/8D5qffZSyu9y6gOZn6xl2fwQIECBAYHmBaPMzRFLytLdXf3M7+/jPtvb2n2vt88/eA/vFd7f2hS+29oGnND/Ll5EVCCwvoPlZ3tgKBAgQIEBg6wLR5qfszs83/OV29ql/2dqP/+vWPvX5e+l66nprn/h0a7/0cc3P1ovY/e1DQPOzjzy7SwIECBAgsKRAtPkpu/PTWjsbDjf4xGda+9BHX6B65Te29sn3t/buf/PShmhNBx44+WPJsn/p3KzXYa35mZYndT3Na85o1nP0pl3LeprXnNGs5+hNu5b1NK85ozdz2tvbvru17/v7rf3gz7b23P9o7cf+cWtvfkNr3/NTrf3Zn7f2V/5Sa6/66639rb/R2gff1do/eW9rp/+7tdOvtfbn/28OoWsJEMgS0PxkSVuHAAECBAhsV2ATOz+vOG7tZ97W2vAfOv2T/9Pan/55a+/5UGufv/VC4ob/ts/7fujlSfyhn2/tPz+z3eS6MwJbEtD8bCmb7oUAAQIECFyNQLT5Kfudn+HX3s7pvuWbWnvlX23tj7/S2vN/cTWgViVAYBkBzc8yrmYlQIAAAQJ7Eog2P4NJydPe7m9+9pQ490pgbwKan71l3P0SIECAAIH+AtHmZxU7P/15zEiAQBUBzU+VTIiDAAECBAisVyDa/Nj5Sc6xkz/ywFmvw1rzMy1P6nqa15zRrOfoTbuW9TSvOaNZz9Gbdi3raV5zRm/mtLc5CK4lQGAdApqfdeRJlAQIECBAoLKAnZ/K2REbAQJ3BTQ/ioEAAQIECBCYKxBtfnznZ6606wkQmCWg+ZnF52ICBAgQIECgtRZtfgYsp70pGQIErkxA83Nl9BYmQIAAAQKbEYg2P3Z+NpNyN0JgnQKan3XmTdQECBAgQKCSQLT5sfOTnDUnf+SBs16HteZnWp7U9TSvOaNZz9Gbdi3raV5zRrOeozftWtbTvOaMdtrbHD3XEiCQJjA0PsOfG9fSlrQQAQIECBAgsEEBOz8bTKpbIrA1Abs+W8uo+yFAgAABAlcjEG1+fOfnavJjVQIEWmuaH2VAgAABAgQI9BCINj/DWk576yFuDgIEJgtofiaTuYAAAQIECBB4iEC0+bHzo3wIELgyAc3PldFbmAABAgQIbEog2vyU3fk5Ozs7Ozo6ujQpkVM09jxmwNvz/Ve7d/k4aw++ph9sfjJzJh8vz8eDb7jyUctIPuTD56KLPxZ6fXh93Lz5ZDs5eaKdnt6+tH+w87OpntfNEFiXgJ2fdeVLtAQIECBAoKrA6nd+hk2LqrjiIkCgj4Dmp4+jWQgQIECAwN4Fos2PnZ+9V4r7J3CFApqfK8S3NAECBAgQ2JBAtPkZbtlpbxtKvFshsCYBzc+asiVWAgQIECBQVyDa/Nj5qZtDkRHYtIDGZ9PpdXMECBAgQCBVINr82PlJTUvs9LXkkDa7XOTkl83efPKNHWKt+TksSYdYH7aSq1jn1QBr1nkCeSup61xrp73leVuJAIEDBDQ/B6C5hAABAgQIEHiogJ0fhUGAQGkBzU/p9AiOAAECBAisSiDa/PjOz6rSKlgC2xHQ/Gwnl+6EAAECBAhctUC0+RnidNrbVWfL+gR2KKD52WHS3TIBAgQIEFhIINr82PlZKAGmJUDgcgHNjwohQIAAAQIEeglEmx87P73Eg/M4+SMI1WEY6w6IwSkOsdb8BHEfGHaI9WEruYp1Xg2wZp0nkLeSus61dtpbnreVCBA4QEDzcwCaSwgQIECAAIGHCtj5URgECJQVGBqf4c+Na2VDFBgBAgQIECCwIoFo8+M7PytKqlAJbEXArs9WMuk+CBAgQIBADYFo8zNE67S3GjkTBYHdCGh+dpNqN0qAAAECBFIEos2PnZ+UdFiEAIH7BTQ/6oEAAQIECBDoKRBtfuz89FQPzOXkjwBSpyGsO0EGpplqrfkJoF4wZKr14Su5knVeDbBmnSeQt5K6zrV22luet5UIEJgooPmZCGY4AQIECBAgcKmAnR8FQoBAWQHNT9nUCIwAAQIECKxSINr8+M7PKtMraALrFtD8rDt/oidAgAABAtUEos3PELfT3qplTzwENi6g+dl4gt0eAQIECBBIFog2P3Z+khNjOQJ7F9D47L0C3D8BAgQIEOgvEG1+7Pz0t790Rid/5IGzrmmt+ZmXF3U9z2/K1aynaM0by3qe35SrWU/RmjeW9Ty/KVcP1k57myJmLAECaQKanzRqCxEgQIAAgd0I2PnZTardKIF1CWh+1pUv0RIgQIAAgTUIRJsf3/lZQzbFSGBDApqfDSXTrRAgQIAAgSIC0eZnCNdpb0WSJgwCexDQ/Owhy+6RAAECBAjkCkSbHzs/uXmxGoHdC2h+dl8CAAgQIECAQHeBaPNj56c7/eUTOvkjD5x1TWvNz7y8qOt5flOuZj1Fa95Y1vP8plzNeorWvLGs5/lNudppb1O0jCVAIFVA85PKbTECBAgQILALATs/u0izmySwLoGh8Rn+3Li2rrhFS4AAAQIECNQWiDY/vvNTO4+iI7ApAbs+m0qnmyFAgAABAmUEos3PEHDJ096uX79+VkZTIAQIdBH40luut2//2PUuc5mEAAECBAgQIHAu8Oijr2snJ0+009Pbl6LY+VEzBAikCdj5SaO2EAECBAgQ2JXA6nd+Wmub3Plx8kfe65B1PWvNz/ycqOv5htEZWEel5o9jPd8wOgPrqNT8caznG0ZncNpbVMo4AgRSBTQ/qdwWI0CAAAECuxGw87ObVLtRAusR0PysJ1ciJUCAAAECaxKINj++87OmrIqVwMoFND8rT6DwCRAgQIBAUYFo8zOEX/K0t61+56dovQiLQIqA5ieF2SIECBAgQGB3AtHmx87P7krDDRO4GgGNz9W4W5UAAQIECOxBINr82PlJrgYnf+SBs65lrfnpkw913ccxMgvriFKfMaz7OEZmYR1R6jOGdR/HyCxOe4soGUOAQKqA5ieV22IECBAgQGBXAnZ+dpVuN0ugvoDmp36OREiAAAECBNYqEG1+fOdnrRkWN4GVCWh+VpYw4RIgQIAAgRUJRJuf4Zac9raixAqVwFoFND9rzZy4CRAgQIBAfYFo82Pnp34uRUhgEwKan02k0U0QIECAAIGSAtHmx85Pcvqc/JEHzrqWteanTz7UdR/HyCysI0p9xrDu4xiZhXVEqc8Y1n0cI7M47S2iZAwBAqkCmp9UbosRIECAAIFdCdj52VW63SyB2gJD4zP8uXGtdpyiI0CAAAECBNYpEG1+fOdnnfkVNYFVCdj1WVW6BEuAAAECBFYnEG1+hhtz2tvq0itgAusS0PysK1+iJUCAAAECaxOINj92ftaWWfESWKGA5meFSRMyAQIECBBYkUC0+bHzk5xUJ3/kgbOuY6356ZcLdd3Pcmwm1mNC/X7Oup/l2Eysx4T6/Zx1P8uxmZz2Nibk5wQIpApoflK5LUaAAAECBHYnYOdndyl3wwTqCmh+6uZGZAQIECBAYAsC0ebHd362kG33QKC4gOaneIKER4AAAQIEVi4QbX6G23Ta28qTLXwC1QU0P9UzJD4CBAgQILBugWjzY+dn3XkWPYHyAhqf8ikSIAECBAgQWL1AtPkpu/NzdnZ2dnR0dGkiIqdo7HnMgLfn+69273vNx3nzIx9nzXva5c/WajWy53j2+n51XqHVci8ftd4/5aNmPm7efLKdnDzRTk9vX/qwsfOz+j7XDRCoLWDn54H8fPaz9RJ27VqtmBiN54PR+oyqvc4GwWp1VM2oms+QM0YXvvafuvWFUPNTdudn2LQYf2czggCB6gKan4c0P5UeXsPDvVI85x/IKsXEaPxthtHlRhV9qr3WKhpVi6laPMVqKPprb3Z+xt/SjSBAYIaA5kfzM7l8qj3gq8VT7APHnfwy0vxMfqEXf2+sWNdeZ5dWWbT5sfMz98XqegIELhXQ/BR/wHuYjr+CGTEaF9D8bNGo2mu/WjzFGsRo82PnZ+6L1fUECGh+ptRAtYdXtXiKPUztagSLWx1pfoKlcuEwNTQuyMjOz3iV1BsROUGmXtTrjIh1Xt4us7bz03fnp3tde5he+EK5a81o/M1kplH3uq7WRM/0GU9AfMRLrAvFtcVfnexe15XydV5yRWIarJ32Fn8fMJIAgQUFND99m5/uqSry4HrJfVWLqVo81T7YV4ynWkwVa4jR+NtptbxVi6dYDUV/7W0I+ytffq6dnn61HR8ft+NHju/8/ZHhn+/768H/PYwbrnnsjY+3W7eeGa+f4IjzWIb/wI/T3oJohhGoKjA0PsOfG8VOUr5Sr2oPr2rxFHuY3qkVRuMvGUaXG1X0qVbbFY2qxVQtnmI1FG1+fOdn/C3dCAIEDhSw6/MQuGoPr2rxFHuYan6CL351pPkJlsqFw9TQuCCjS42izY+dn/FSM4IAgQMFND+an4NKp9oDvlo8GsRYWVXKW6VY7terFFelWM6NqsVULZ5i70XR5sfOT+wt1CgCBA4Q0Pxofg4om3q/ZuYDx3gaGdn5Ga+S9RlVq+tq8ay0+bHzM/fFOvH67id/TFx/T8NZ52X7ImvNT//mp3tde5he+EJx2tuE95CZddS9rot9KKv0vTGnva24rme+zibceXxokZic9hZPmZEECCwooPnp3/x0T1eRB9dL7qtaTNXiqfbBvmI81WKqWEOMxt9Oq+WtWjzFaij6a292fsZL3wgCBA4U0Pxofg4qnWoP+GrxFPvAcSfHjC4v9Yo+1fJW0ahaTNXiKVZD0ebHd34OejK7iACBiIDmR/MTqZOXjan2gK8WT7EPHJqfQJVXrKFqdVTRqFpM1eIpVkPR5sfOT+A9yxACBA4T0Pxofg6qnGoP+GrxFPvAofkJVHnFGqpWRxWNqsVULZ5iNRRtfuz8BN6zDCFAYLqAxucCs2oPr2rxFHuY+mAffO2ro8uhKvpUe61VNKoWU7V4itVQtPmx8xN8X+81bJETbXoFt7F5WOcl9GHWmp9lmp/ude1heuELxWlvE95DZtZR97ou9qGs0neinPa24rqe+TqbcOfxoUVictpbPGVGEiCwkIDmZ5nmp3u6ijy4XnJf1WKqFk+1D/YV46kWU8UaYjT+dlotb9XiKVZDdn7GS9oIAgQWFND8aH4OLq9qD/hq8RT7wHEnz4wuL/eKPtXyVtGoWkzV4ilWQ9Hmx3d+Dn46u5AAgcsEND+an4NfIdUe8NXiKfaBQ/MTqPSKNVStjioaVYupWjzFaija/Axhf+XLz7XT06+24+PjdvzI8Z2/PzL8831/Pfi/h3HDNY+98fF269YzgRd+bMh5LEettbPYJUYRIFBRQPOj+Tm4Lqs94KvFU+wDh+YnUOkVa6haHVU0qhZTtXiK1VC0+bHzE3jPMoQAgekCmh/Nz/SqefGKag/4avEU+8Ch+QlUesUaqlZHFY2qxVQtnmI1FG1+7PwE3rN6DlnkRJueAW5oLtZ5yXTa2wTrmQ+v7nU9M54Jdx4fWiQmp73FUzb3Oz/d67rYh7K5PhMyMTrUaW+jRPcGzHwv6l7XM+OZcOfxoUVictpbPGVGEiCwkICdHzs/B5dWkYfp3firxVPtg33FeKrFVLGGGI2/RVXLW7V4itWQnZ/xkjaCAIGFBIbGZ/hz49pCC6x52moPr2rxFHuY3ik1RuOvOEaXG1X0qVbbFY2qxVQtnmI1FG1+fOdn/C3dCAIEJgrY9bkErNrDq1o8xR6mmp/gi18daX6CpXLhMDU0LsjoUqNo8zNM4rS38XIzggCBCQKaH83PhHJ5+dBqD/hq8WgQY+VVKW+VYrlfr1JclWI5N6oWU7V4ir0XRZsfOz+xt1CjCBCYIKD50fxMKBfNzyFY1T4EVYun2Ieykr86yWj8lVetrqvFU6yGos2PnZ/x0u86ovvJH12j29ZkrPPy+aC15me55qd7XXuYXpgsp71NeA+ZWUfd67rYh7JKzY/T3lZc1zNfZxPuPD60SExOe4unzEgCBBYQ0Pws1/wskK5aX+gv8iB9mXOluCrFcg5VLaZq8VRrxirGUzEmdXT5I6eYj52fRT4hmJQAgYiA5kfzE6mTh44p9jC9G2OluCrFovmJl3q1vFWLR/MTq6VKeasUS2st2vz4zk+s1IwiQGCCgOZH8zOhXF46tNjDVPMTzGS1vFWLxwf7WCFVy1u1eKrVUTGfaPMzMDrtLfaSNIoAgaCA5kfzEyyVlw8r9jDV/AQzWS1v1eKp9qG1YjwVY1JHl78BFPOJNj92foLv64YRIBAX0PxofuLV8sDIYg9TzU8wk9XyVi0eH+xjhVQtb9XiqVZHxXyizY+dn9jLsduoRU606RbdtiZinZdPp71NsJ75sFikrmfGNOHux4cWisWpWOPp6tUcdq/rQnXUy2hCNi4d6hTDCZIz66h7XWt+Lkye094m1LWhBAj0F7DzY+fn4Kqa+WHj4HXHLqwUV6VYzt2qxVQtnmofWivGUzEmdXT5O2MxHzs/Yw8yPydAYDEBzY/m5+DiKvYwrfb/2t+Jp6JRtZiqxVMxb4zG36YYbbL58Z2f8dI3ggCBiQKaH83PxJK5N7zih41qH1wrGlWLqVo81WqoYjwVY1JHm2x+hpty2tvBT2kXEiDwMAHNj+bn4FdGxQ8b1T6UVTSqFlO1eKrVUMV4KsakjjbZ/Nj5OfgJ7UICBC4S0Pxofg5+dVT8sFHtQ1lFo2oxVYunWg1VjKdiTOpok82PnZ+Dn9CHXbjIyR+HhbL5q1jnpdhpbxOsZz5MF6nrmTFNuPvxoYVicdrbeLrujpiZt+51PTOeCXceH1okJqe9xVM29/t13eu6WoNYpKYHFqe9TahrQwkQ6C9g58fOz8FVVehh+pJ7qBRXpVjOkarFVC2eah9aK8ZTMSZ1ZOfn+Lgdn//1yHE7Pf1qe+yNj7dbt545+DH34IXn3z86Gpq4brOaiACBNIGh8Rn+3LiWtuS6FvIwXdXDtNfORtciVUPjnIwYjQuMj1BHq3q/jh517Ts/46VvBAECEwTs+oxgeZiu6mGq+Qm++KvVdbV47GrECqla3qrFU62OivlEm5+B0WlvsZekUQQIBAQ0P5qfQJlcPKTYw1TzE8xmtbxVi6fah9aK8VSMSR2t6v+sijY/dn6C7+uGESAQE9D8aH5ilXLBqIofNqp9KKtoVC2mavFUq6GK8VSMSR1tsvmx8zPrKT394kVO/pgJsL6KAAAdj0lEQVQexi6uYJ2X5vutNT/LNj+L1HWlB3yhWJz2NuE9ZGbeutf1zHgm3Hl8aJGYnPYWT5nT3pZ9nk3IxOhQp72NEhlAgMBSApqf9Tws7kZa5EPZnXgqxXJ/KivFVSmWc6NqMVWLp2JtMxp/DDKy8+O0t/HXiREE9i6g+dH8zHoNVPywUe2Da0WjajFVi6daDVWMp2JM6miTzY/v/Mx6SruYAIEHBTQ/mp9Zr4qKHzaqfSiraFQtpmrxVKuhivFUjEkdbbL5GW7KaW+zntQuJkDgfgHNj+Zn1iui4oeNah/KKhpVi6laPNVqqGI8FWNSR5tsfuz8zHpKu5gAAY3PxBrwMF3Vw/RusJXyVimWc6BqMVWLxwf72BtltbxVi6daHRXziR51becn9nLsNqr7iTbdItveRKzzcnpubdcnYD7zYbFIXc+MKXDX8SGFYnHaWzxtcw+q6F7XheqoWgPttLcV17Xm58LkOe1tQl0bSoBAPwHNT8DShzI7P4EyuXSIGhoXZMRoXGB8hDpa1fu1nZ/xkjaCAIHOApqfAKiH6aoeptX+X/s78aih8RcaI0bjAuMj1NGq3q+jzY/v/IyXvhEECAQFND8BKA/TVT1MNT+Bmq7YkHmdjSeOEaNxgVW9X0ebn+GmnPY2N/muJ0DgjoDmJ1AIPnCs6mGq+QnUtOYnhlTttV8tHnW0vjoqVkPR5sfOT6zUjCJAICCg+QkgFXtY3Im4UkyVYrk/nZXiqhTLuVG1mKrFU+11VjGeijGpo1X9n1XR5me4qd/4yEcCD+yHD/mJn/ypduvWMwdf/+CF57tQR621s26zmogAgRQBzU+A2cN0VQ9TOz+BmvahNYZU7bVfLR51tL46KlZD0eZn2Pn5ufe9t/3wj74zZv7iqM999jPt6c98un3vW9866bqxwXebn+vXr2t+xrT8nEBHgetvecvs2d7RrrUb7bOz59n6BNc/9rFSt9gj9z1vqJrPcG+MLs9wNZ87OfM6G31ZMholUkcjRJVq6NFHX9dOTp5op6e3RxM77PwMzc9//29fas8///zdv/7ivn8e/v3d//0Xz7dHHjm+0/zY+RnlNYDAPgSGXZ/hz41r+7hfd0mAAAECBAjUEThk5+eQ5mexnZ+7v/b2pje19v3f39qrXtXa00+39gu/0NrXvnZPeuzndXIiEgKbFvArb5tOr5sjQIAAAQKlBaLNz3ATdXd+Hn+8tQ98oLX3v7+1Z59t7V3vau3rX2/tnS/+jt7Yz0unSHAEtiWg+dlWPt0NAQIECBBYk0C0+bn/Oz/1dn5u3Gjti19s7b3vfcH+ta9t7Td/s7Uf+IHW/uAPWhv7+ZoyJlYCKxfQ/Kw8gcInQIAAAQIrFog2P3V3fo6Pz9pv/3ZrP/3Trf3Wb91LxUc/2tqv/Vprv/7r7dKf/+qvrjh9QiewPgHNz/pyJmICBAgQILAVgWjzU3fn51u/9ax94hOtveMdrX3uc/fy8su/3Nrv/35rTz7ZLv35Bz9YMpdnZ2ft6Gg4ydufpQVYLy18b/7B+keePnLYQQK5uk5AfnEJ1qzzBPJWUtes8wTyVhrq+ubNJ1d+2turX33WPv7x1t7+9tY+//l7er/4i6194QsvND+X/Xz4rpA/BAikCdj5SaO2EAECBAgQIPCAwPp3fr7hG87apz7V2o//eLvz9/M/Tz31wo7Pr/zKC//+op//0i8pCgIEEgU0P4nYliJAgAABAgReIhBtfoaL6p72NhxuMDQ6H/rQCzf3yle29slPtvbud7/Q+Iz9XFEQIJAmoPlJo7YQAQIECBAg8IBAtPmp+52f1s7a297W2vd9X2s/+IOtPfdcaz/2Y629+c2tfc/3tPZnf9ZGf64sCBBIE9D8pFFbiAABAgQIEDiw+am98/OKV7T2Mz/T2vAfMv2TP2ntT/+0tfe85953gMZ+riwIEEgR0PikMFuEAAECBAgQuEBgGzs/5zf3Ld/ywq+8/fEft/b88y+/5bGfFyoTp6zkJYN1nrXmJ89aXbPOE8hbSV2zzhPIW0ld51qv/7S34dfe/CFAYBUCmp9VpEmQBAgQIEBgswLb2vnZbJrcGIFtCGh+tpFHd0GAAAECBNYqEG1+hvure9rbWvXFTWBnApqfnSXc7RIgQIAAgWIC0ean9mlvxVCFQ4DAwwU0PyqDAAECBAgQuEqBaPNj5+cqs2RtAhsR0PxsJJFugwABAgQIFBR4R/vsaFRveuoL7eTkiXZ6evvSsXZ+Rin7DnDyR1/Py2ZjnWet+cmzVtes8wTyVlLXrPME8lZS1w+3jjQyD155o127NHGDtdPe8mrbSgR2L6D52X0JACBAgACBHQtMaWjGGplDGaO/9mbn51Bh1xEgcEdgaHyGPzcu/z9laBEgQIAAAQIrEqjQ0EzhijY/w5xOe5siaywBAi8RsOujIAgQIECAQD2BKc3Lw6JfaodmKalo82PnZ6kMmJfATgQ0PztJtNskQIAAgTICkcZmbc3LXNxo82PnZ6606wnsXEDzs/MCcPsECBAg0EUg0tCcL7S3xiYCHG1+7PxENDuOcfJHR8yRqVjnWA/Nz4def9aOjo5yFtz5Kuo6rwBYs84TyFtJXedYT2lkNDTzc+K0t/mGZiBAIChg5ycIZRgBAgQIrFJAI7OOtNn5WUeeRElg9QKan9Wn0A0QIEBgVwJTmxm/YraO8og2P8PdOO1tHTkVJYGSApqfkmkRFAECBHYlMKWh0cxsszSizc/5d35e/4bvmgzx9Gc+3b73rW+dfN1lF3zly8+109OvtuHLA2ddZzYZAQKLCGh+FmE1KQECBHYrMKWROUfS0Oy2XO7eeLT5Od/5OVTsJ37yp9qtW88cevnLrtP8dKM0EYHlBTQ+yxtbgQABAmsW0MisOXvrij3a/Aw7P7/3u7/Tnj97vh0fH7/41yvu++fzfzf8/aX//o+efbZ922te3RVm882PU1a61sulk7Fe3vq8+WG9vPX5CqxZ5wnkraSu12U9paHZ846Mus6t65s3n2wnJ0+009PbowsPDcehzc9jb3zczs+osAEENipg52ejiXVbBAjsTkBDs7uUb+6G7fxsLqVuiEA9Ac1PvZyIiAABAoPAlGZmGL/nHRoVsw2BaPMz3K2dn23k3F0QSBfQ/KSTW5AAgR0KTG1kNDM7LBK33KLNj+/8KBYCBA4W0PwcTOdCAgR2LjClobErs/NicfshgWjzY+cnxGkQAQIPE9D8qAsCBAhM/xUzOzOqhkB/gWjzY+env/2lMzr5Iw+c9fLWTntb3vjBFdR1njnrfVtvdWdGXe+7rvPuPneloa6d9pZrbjUCuxSw87PLtLtpAqsTmNLInN+cXzVbXZoFvHMBOz87LwC3T2BpgaHxGf7cuLb0SuYnQIDASwU0MyqCAIEHBaLNz3Cd097UDwECkwXs+kwmcwEBApcITGlo7MooJQIEDm1+fOdH7RAgcJCA5ucgNhcR2IXAlEbmHERDs4vScJMEFhOw87MYrYkJEBgEND/qgMC+BKY0NBqZfdWGuyVQQSDa/Nj5Sc6WU1bywFkva31/88N6Wev7Z2fNuofAlEYmY2dGXffIamwO1jGnHqNY91CMzeG0t5iTUQQIzBCw8zMDz6UEOgtUa2Y6357pCBAgMCpg52eUyAACBOYIaH7m6LmWwLjAlIbGr5mNexpBgMC2BaLNz6DgtLdt14K7I7CIgOZnEVaTblRgSiNzTqCh2WgxuC0CBBYRiDY/vvOzCL9JCWxfQPOz/Ry7w4cLaGRUBgECBOoJRJsfOz/1ciciAuUFND7lUyTAiQJTGho7MhNxDSdAgECCQLT5sfOTkIz7l3DyRx446+WsH2x+WC9n/eDMrGPWU5qZ8xkfbGpYx6x7jGLdQzE2B+uYU49RrHsoxuZw2lvMySgCBA4UsPNzIJzLZglMaWjszsyidjEBAgRWJ2DnZ3UpEzCB9QhoftaTq6qRTmlkLtqZqXpv4iJAgACBfIFo8zNE5rS3/PxYkcCqBTQ/q05f9+A1Mt1JTUiAAAECEwWizY/v/EyENZwAgdY0P9uvgikNjV8x2349uEMCBAhUF4g2P3Z+qmdSfAQKCmh+CiZlJKQpzcwwlYZmfTkWMQECBPYsEG1+7PwkV4mTP/LAWS9n7bS35WzHZh7q+keOnh4b9rKfa2YmkzXvIdPNDr2C9aFy069jPd3s0CtYHyo3/TqnvU03cwUBAhME7PxMwAoOnbIzo5EJohpGgAABArsRsPOzm1S7UQK5AkPjM/y5cS133TWtNqWROb8vDc2aMixWAgQIEKgmEG1+hrid9lYte+IhUFhgr7s+UxoajUzhAhYaAQIECGxSINr8+M7PJtPvpggsJ7CF5mdKI2NnZrlaMjMBAgQIEOglEG1+7Pz0EjcPgZ0IVGx+NDM7KT63SYAAAQIELhCINj9ld37Ozs7Ojo6OLk1w5BSNPY8Z8PZ8/9XufSv5eFjzs4T1lIbmwV8zi8SzlXw87E0ycv/VxsjHWav0zJMP+ahUj96vatVj1XzcvPlkOzl5op2e3h5tEH3nZ5TIAAIEzgUiOz9TGpeLZH1vRs0RIECAAAECUYHV7/wMmxbRmzWOAIH5Aj0alvuj0LzMz4kZCBAgQIAAgZhAtPkZZrPzEzM1igCB1lpk5wcUAQIECBAgQCBTINr8lP3Oj52fzHKxFoG4gOYnbmUkAQIECBAgkCMQbX7s/OTkwyoENiOg+dlMKt0IAQIECBDYjEC0+bHzk5zyyAkZySFtdjnWy6T20NPelolmf7Oq67ycs2adJ5C3krpmnSeQt9JQ1057y/O2EoFdCdj52VW63SwBAgQIEFiFgJ2fVaRJkATWJ6D5WV/OREyAAAECBLYuEG1+BgenvW29GtwfgY4Cmp+OmKYiQIAAAQIEughEmx/f+enCbRIC+xHQ/Own1+6UAAECBAisRSDa/Nj5WUtGxUmgiIDmp0gihEGAAAECBAjcFYg2P3Z+kovGKSt54KyXsXba2zKu0VnVdVRq/jjW8w2jM7COSs0fx3q+YXQG1lGp+eOc9jbf0AwECFwgYOdHaRAgQIAAAQLVBOz8VMuIeAhsQGBofIY/N65t4GbcAgECBAgQILAZgWjzM9yw0942k3Y3QmBZAbs+y/qanQABAgQIEDhMINr8+M7PYb6uIrBLAc3PLtPupgkQIECAQHmBaPNj56d8KgVIoI6A5qdOLkRCgAABAgQI3BOINj92fpKrxskfeeCs+1tf1Pyw7m990YysWecJ5K2krlnnCeStpK5zrW/efLKdnDzRTk9vjy7sOz+jRAYQIDAI2PlRBwQIECBAgEBFATs/FbMiJgIrF9D8rDyBwidAgAABAhsViDY/w+3b+dloEbgtAr0FND+9Rc1HgAABAgQI9BCINj/VvvPzGx/5yJ3bP2qtnfWAMAcBAv0END/9LM1EgAABAgQI9BOINj/Vdn6G5ueHf/Sdmp9+pWAmAn0END59HM1CgAABAgQI9BeINj8Vd3423fw4+aN/sV80I+u+1pc1P6z7Wl82G2vWeQJ5K6lr1nkCeSup61zrtZ72Zucnr06sRGCSgJ2fSVwGEyBAgAABAokCdn4SsS1FYA8Cmp89ZNk9EiBAgACBdQpEm5/h7iqd9mbnZ531JuodCGh+dpBkt0iAAAECBFYqEG1+fOdnpQkWNoFsAc1Ptrj1CBAgQIAAgahAtPmx8xMVNY7AzgU0PzsvALdPgAABAgQKC0SbHzs/yUl08kceOOu+1k576+t56Gzq+lC56dexnm526BWsD5Wbfh3r6WaHXsH6ULnp1w3WTnub7uYKAgQuEbDzozwIECBAgACBqgJ2fqpmRlwEVigwND7DnxvXVhi8kAkQIECAAIHNC0SbnwHCaW+bLwc3SGCegF2feX6uJkCAAAECBJYViDY/vvOzbB7MTmATApqfTaTRTRAgQIAAgc0KRJsfOz+bLQE3RqCfgOann6WZCBAgQIAAgf4C0ebHzk9/+0tndPJHHjjrftZjzQ/rftZjM7EeE+r3c9b9LMdmYj0m1O/nrPtZjs3Eekyo38+d9tbP0kwECLTWxpofSAQIECBAgACBqxSw83OV+tYmsDEBzc/GEup2CBAgQIDAxgSizc9w205721jy3Q6B3gKan96i5iNAgAABAgR6CkSbH9/56aluLgIbFdD8bDSxbosAAQIECGxEINr82PnZSMLdBoGlBDQ+S8malwABAgQIEOglEG1+7Pz0Eg/O4+SPIFSHYaw7IAYPO2DdxzoyC+uIUp8xrPs4RmZhHVHqM4Z1H8fILKwjSn3GOO2tj6NZCBAINj+gCBAgQIAAAQJXKWDn5yr1rU1gQwJ+7W1DyXQrBAgQIEBgowLR5me4fae9bbQI3BaBHgKanx6K5iBAgAABAgSWFIg2P77zs2QWzE1gAwKanw0k0S0QIECAAIGNC0SbHzs/Gy8Et0dgroDmZ66g6wkQIECAAIGlBaLNj52fpTPxwPxO/sgDZ93HOtL8sO5jHZmFdUSpzxjWfRwjs7COKPUZw7qPY2QW1hGlPmOc9tbH0SwEdi8wND7DnxvXdk8BgAABAgQIECgsYOencHKERmAtApFdn7XcizgJECBAgACB7QpEm59BoNppb69/w3e1o9ba2XbT484IrENA87OOPImSAAECBAjsXSDa/FT8zs+QO83P3ivY/ZcQ0PyUSIMgCBAgQIAAgRGBaPNTbefnfBdK86PECRQQ0PwUSIIQCBAgQIAAgVGBaPNTbedn882Pkz9Ga7fbANbzKKc0PqznWU+5mvUUrXljWc/zm3I16yla88aynuc35WrWU7TmjV3zaW+bb37mpdbVBPIEpjQ/eVFZiQABAgQIECDwcgE7P6qCAIFZApqfWXwuJkCAAAECBBIFos3PEFKl097s/CQWiaUIXCag+VEfBAgQIECAwFoEos2P7/ysJaPiJJAo4D9umohtKQIECBAgQGC2QLT5Kbvzc/36df+dn9llYAICcYEvveX63cHf/rF7/xyfwUgCBAgQIECAwNUIPPro69rJyRPt9PT2pQGU3fk5Ozs7OzoaTry++E/kFI09jxnk9nz/1e5dPs5apde0fMhHpXr0flWrHuVDPsY+vlerkT3Hc/48v3nzyVDzU3bnZ/jcPlZ4fk6AAAECBAgQIECAAIHor72V3fnR/ChiAgQIECBAgAABAgQiAtHmx85PRNMYAgQIECBAgAABAgTKCkSbHzs/ZVMoMAIECBAgQIAAAQIEIgLR5sfOT0TTGAIECBAgQIAAAQIEygpEmx87P8kpjJzGkRzSZpdjnZda1qzzBPJWUtes8wTyVlLXrPME8lYa6tppb3neViJAgAABAgQIECBA4AoF7PxcIb6lCRAgQIAAAQIECBDIE4g2P0NEX/nyc+35s+fb8fHxi3+94r5/Pv93w99f+u//6Nln22NvfLzduvVMtxs7j2X4r5v67/x0YzURAQIECBAgQIAAge0KRJsf3/nZbg24MwIECBAgQIAAAQK7EIg2P3Z+dlEObpIAAQIECBAgQIDAdgWizY+dn+QacMpKHjhr1nkCeSupa9Z5AnkrqWvWeQJ5K6nrXGunveV5W4kAAQIECBAgQIAAgSsUsPNzhfiWJkCAAAECBAgQIEAgTyDa/AwROe0tLy9WIkCAAAECBAgQIECgs0C0+fGdn87wpiNAgAABAgQIECBAIFcg2vzY+cnNi9UIECBAgAABAgQIEOgsEG1+7Px0hh+bzskfY0L9fs66n+XYTKzHhPr9nHU/y7GZWI8J9fs5636WYzOxHhPq93PW/SzHZhqsnfY2puTnBAgQIECAAAECBAhsQsDOzybS6CYIECBAgAABAgQIEBgTiDY/wzxOexvT9HMCBAgQIECAAAECBMoKRJsf3/kpm0KBESBAgAABAgQIECAQEYg2P3Z+IprGECBAgAABAgQIECBQViDa/Nj5SU6hkz/ywFmzzhPIW0lds84TyFtJXbPOE8hbSV3nWjvtLc/bSgQIECBAgAABAgQIXKGAnZ8rxLc0AQIECBAgQIAAAQJ5AtHmZ4jIaW95ebESAQIECBAgQIAAAQKdBaLNj+/8dIY3HQECBAgQIECAAAECuQLR5sfOT25erEaAAAECBAgQIECAQGeBaPNj56czvOkIECBAgAABAgQIEMgViDY/dn5y89Ice5gHzpp1nkDeSuqadZ5A3krqmnWeQN5K6jrXOnrUddmdn+vXr5/lkVmJAAECBAgQIECAAIG1Cjz66OvayckT7fT09ugtOO1tlMgAAgQIECBAgAABAgSqCkR/7a3szk9rzc5P1eoSFwECBAgQIECAAIFCAtHmZwjZzk+hxAmFAAECBAgQIECAAIFpAtHmx87PNFejCRAgQIAAAQIECBAoJhBtfuz8JCfOyR954KxZ5wnkraSuWecJ5K2krlnnCeStpK5zrVd/2pvv/OQVjJUIECBAgAABAgQIrFnAzs+asyd2AgQIECBAgAABAgTCAtHmx3d+wqQGEiBAgAABAgQIECBQUSDa/AyxO+2tYgbFRIAAAQIECBAgQIBASCDa/Nj5CXEaRIAAAQIECBAgQIBAVYFo82PnJzmDTv7IA2fNOk8gbyV1zTpPIG8ldc06TyBvJXWda+20tzxvKxEgQIAAAQIECBAgcIUCdn6uEN/SBAgQIECAAAECBAjkCUSbH9/5ycuJlQgQIECAAAECBAgQWEAg2vwMSzvtbYEEmJIAAQIECBAgQIAAgRyBaPNj5ycnH1YhQIAAAQIECBAgQGAhgWjzY+dnoQRcNK2TP/LAWbPOE8hbSV2zzhPIW0lds84TyFtJXedaO+0tz9tKBAgQIECAAAECBAhcoYCdnyvEtzQBAgQIECBAgAABAnkC0ebHd37ycmIlAgQIECBAgAABAgQWEIg2P8PSTntbIAGmJECAAAECBAgQIEAgRyDa/Nj5ycmHVQgQIECAAAECBAgQWEgg2vzY+VkoARdN6+SPPHDWrPME8lZS16zzBPJWUtes8wTyVlLXudZOe8vzthIBAgQIECBAgAABAlcoYOfnCvEtTYAAAQIECBAgQIBAnkC0+fGdn7ycWIkAAQIECBAgQIAAgQUEos3PsLTT3hZIgCkJECBAgAABAgQIEMgRiDY/dn5y8mEVAgQIECBAgAABAgQWEog2P2V3fs7Ozs6Ojo4u5YmcorHnMQPenu+/2r3Lx1mr9JqWD/moVI/er2rVo3zIx9jn82o1sud4zp/nTnsbq1o/J0CAAAECBAgQIEBgEwKr3/kZNi02kQk3QYAAAQIECBAgQIDAogLR5sd3fhZNg8kJECBAgAABAgQIEFhaINr8DHE47W3pbJifAAECBAgQIECAAIHFBKLNj52fxVJgYgIECBAgQIAAAQIEMgSizY+dn4xs3LdG5DSO5JA2uxzrvNSyZp0nkLeSumadJ5C3krpmnSeQt9JQ1057y/O2EgECBAgQIECAAAECVyhg5+cK8S1NgAABAgQIECBAgECeQLT58Z2fvJxYiQABAgQIECBAgACBBQSizc+wtNPeFkiAKQkQIECAAAECBAgQyBGINj92fnLyYRUCBAgQIECAAAECBBYSiDY/dn4WSsBF0zplJQ+cNes8gbyV1DXrPIG8ldQ16zyBvJXUda61097yvK1EgAABAgQIECBAgMAVCtj5uUJ8SxMgQIAAAQIECBAgkCcQbX585ycvJ1YiQIAAAQIECBAgQGABgWjzMyzttLcFEmBKAgQIECBAgAABAgRyBKLNj52fnHxYhQABAgQIECBAgACBhQSizY+dn4UScNG0Tv7IA2fNOk8gbyV1zTpPIG8ldc06TyBvJXWda+20tzxvKxEgQIAAAQIECBAgcIUCdn6uEN/SBAgQIECAAAECBAjkCUSbH9/5ycuJlQgQIECAAAECBAgQWEAg2vwMSzvtbYEEmJIAAQIECBAgQIAAgRyBaPNj5ycnH1YhQIAAAQIECBAgQGAhgWjzY+dnoQRcNK2TP/LAWbPOE8hbSV2zzhPIW0lds84TyFtJXedaO+0tz9tKBAgQIECAAAECBAhcoYCdnyvEtzQBAgQIECBAgAABAnkC0ean6nd+/j9MK3tN+NB9fwAAAABJRU5ErkJggg==;connectable=0;movable=0;opacity=70;" vertex="1" parent="1">
          <mxGeometry x="-180" y="30" width="1520" height="794" as="geometry" />
        </mxCell>
        <mxCell id="72Am2vbFL40teB_BgCZg-2" value="" style="endArrow=none;html=1;strokeColor=#FFFFFF;" edge="1" parent="1">
          <mxGeometry width="50" height="50" relative="1" as="geometry">
            <mxPoint x="390" y="550" as="sourcePoint" />
            <mxPoint x="390" y="90" as="targetPoint" />
          </mxGeometry>
        </mxCell>
        <mxCell id="72Am2vbFL40teB_BgCZg-3" value="" style="endArrow=none;html=1;strokeColor=#FFFFFF;" edge="1" parent="1">
          <mxGeometry width="50" height="50" relative="1" as="geometry">
            <mxPoint x="230" y="657" as="sourcePoint" />
            <mxPoint x="230" y="90" as="targetPoint" />
          </mxGeometry>
        </mxCell>
        <mxCell id="72Am2vbFL40teB_BgCZg-4" value="(參數 - 前置距離)&lt;br&gt;速度不連續區段，需要避免在此段出膠&lt;br&gt;需要使用者預先給定距離&lt;br&gt;或系統自動計算；根據預計的加速距離" style="text;html=1;align=left;verticalAlign=middle;resizable=0;points=[];autosize=1;fillColor=#f5f5f5;strokeColor=#666666;fontColor=#333333;" vertex="1" parent="1">
          <mxGeometry x="230" y="40" width="220" height="60" as="geometry" />
        </mxCell>
        <mxCell id="72Am2vbFL40teB_BgCZg-5" value="(參數 - 點膠起點)&lt;br&gt;點膠起點；需要使用者給定" style="text;html=1;align=left;verticalAlign=middle;resizable=0;points=[];autosize=1;fontColor=#333333;fillColor=#f5f5f5;strokeColor=#666666;" vertex="1" parent="1">
          <mxGeometry x="390" y="285" width="160" height="30" as="geometry" />
        </mxCell>
        <mxCell id="72Am2vbFL40teB_BgCZg-6" value="" style="endArrow=none;html=1;strokeColor=#6c8ebf;fillColor=#dae8fc;" edge="1" parent="1">
          <mxGeometry width="50" height="50" relative="1" as="geometry">
            <mxPoint x="660" y="560" as="sourcePoint" />
            <mxPoint x="660" y="330" as="targetPoint" />
          </mxGeometry>
        </mxCell>
        <mxCell id="72Am2vbFL40teB_BgCZg-7" value="" style="endArrow=none;html=1;strokeColor=#6c8ebf;fillColor=#dae8fc;" edge="1" parent="1">
          <mxGeometry width="50" height="50" relative="1" as="geometry">
            <mxPoint x="520" y="560" as="sourcePoint" />
            <mxPoint x="520" y="340" as="targetPoint" />
          </mxGeometry>
        </mxCell>
        <mxCell id="72Am2vbFL40teB_BgCZg-8" value="(參數 - 出膠間距)" style="text;html=1;align=left;verticalAlign=middle;resizable=0;points=[];autosize=1;fillColor=#dae8fc;strokeColor=#6c8ebf;" vertex="1" parent="1">
          <mxGeometry x="520" y="490" width="110" height="20" as="geometry" />
        </mxCell>
        <mxCell id="72Am2vbFL40teB_BgCZg-9" value="" style="endArrow=none;html=1;strokeColor=#d6b656;fillColor=#fff2cc;" edge="1" parent="1">
          <mxGeometry width="50" height="50" relative="1" as="geometry">
            <mxPoint x="720" y="350" as="sourcePoint" />
            <mxPoint x="720" y="220" as="targetPoint" />
          </mxGeometry>
        </mxCell>
        <mxCell id="72Am2vbFL40teB_BgCZg-10" value="" style="endArrow=none;html=1;strokeColor=#d6b656;fillColor=#fff2cc;" edge="1" parent="1">
          <mxGeometry width="50" height="50" relative="1" as="geometry">
            <mxPoint x="660" y="350" as="sourcePoint" />
            <mxPoint x="660" y="220" as="targetPoint" />
          </mxGeometry>
        </mxCell>
        <mxCell id="72Am2vbFL40teB_BgCZg-11" value="(參數 - 膠閥單次開啟時間)&lt;br&gt;影響單點大小" style="text;html=1;align=left;verticalAlign=middle;resizable=0;points=[];autosize=1;fillColor=#fff2cc;strokeColor=#d6b656;" vertex="1" parent="1">
          <mxGeometry x="660" y="205" width="150" height="30" as="geometry" />
        </mxCell>
      </root>
    </mxGraphModel>
  </diagram>
</mxfile>
